<svg version="1.1" id="Layer_1" xmlns="http://www.w3.org/2000/svg" xmlns:xlink="http://www.w3.org/1999/xlink" x="0px" y="0px"
	 width="100%" viewBox="0 0 1024 303" enable-background="new 0 0 1024 303" xml:space="preserve">
<path fill="#FEFEFE" opacity="1.000000" stroke="none" 
	d="
M652.000000,304.000000 
	C434.666718,304.000000 217.833405,304.000000 1.000087,304.000000 
	C1.000058,203.000061 1.000058,102.000114 1.000029,1.000128 
	C342.333221,1.000085 683.666443,1.000085 1024.999756,1.000043 
	C1024.999756,101.999870 1024.999756,202.999741 1024.999878,303.999817 
	C900.833313,304.000000 776.666687,304.000000 652.000000,304.000000 
M507.941864,231.609528 
	C508.195129,225.981903 508.532440,220.355667 508.625763,214.725403 
	C508.643005,213.685623 507.673706,212.629471 507.159729,211.580887 
	C506.610748,212.719666 505.664001,213.830261 505.581024,215.002045 
	C505.205383,220.307663 505.073700,225.630569 504.268616,231.345200 
	C502.035858,231.547195 499.804535,231.767578 497.569611,231.941788 
	C496.725555,232.007553 495.873230,231.966522 495.024658,231.974182 
	C495.366699,232.904953 495.434662,234.175720 496.096741,234.709396 
	C499.498047,237.451080 504.414185,236.289551 507.941864,231.609528 
M241.232925,145.985992 
	C235.905807,149.506149 230.578674,153.026306 225.251556,156.546463 
	C225.433823,156.965668 225.616089,157.384888 225.798355,157.804092 
	C231.200027,155.525528 236.601700,153.246979 242.752518,150.922989 
	C249.499969,148.430984 256.247406,145.938965 263.315918,143.328384 
	C261.230865,140.633331 259.359589,138.214554 257.235901,135.469528 
	C251.999115,138.983551 246.947067,142.373611 241.232925,145.985992 
M256.411774,63.944798 
	C251.294022,59.742428 246.176270,55.540058 241.058517,51.337688 
	C240.751617,51.731159 240.444702,52.124630 240.137787,52.518101 
	C243.843750,56.760391 247.549713,61.002678 251.607819,65.863174 
	C256.078369,71.565094 260.528656,77.283295 265.069092,82.929031 
	C265.345398,83.272629 266.336639,83.041313 266.989594,83.817360 
	C265.549225,85.260063 264.108826,86.702766 261.953308,88.042366 
	C249.241028,83.550323 236.528763,79.058289 223.816483,74.566254 
	C227.510559,78.000755 231.535995,80.554840 235.613785,83.022415 
	C243.402847,87.735809 251.221710,92.399933 259.339996,97.672325 
	C260.533386,98.110825 261.726746,98.549332 262.898529,99.763672 
	C262.156067,103.087418 261.413635,106.411171 260.521759,110.403831 
	C263.467957,109.733177 265.194000,109.340279 267.449341,109.342300 
	C267.624634,110.178963 267.799927,111.015625 267.230804,112.043526 
	C263.668213,113.102509 260.105621,114.161491 255.605392,115.499184 
	C262.207245,118.269737 261.389130,123.418488 260.957458,128.077164 
	C260.102905,137.299484 265.885254,142.030319 275.011230,138.957687 
	C274.905029,132.352509 273.532715,125.050232 281.992401,122.624077 
	C281.989899,123.386581 281.987396,124.149086 281.398895,125.317390 
	C274.669769,134.033325 277.104248,141.132828 287.802887,144.062119 
	C288.231415,144.179459 288.570465,144.623703 288.284485,145.212753 
	C287.670959,145.468826 287.060760,145.733139 286.443451,145.979782 
	C263.725311,155.057205 242.165131,166.088440 224.740982,183.746048 
	C212.895813,195.749908 206.075668,210.026505 207.033279,227.264832 
	C208.039398,245.376541 216.476501,260.309692 227.846298,273.795624 
	C228.959671,275.116180 231.615356,275.664673 233.560104,275.675385 
	C256.050232,275.799377 278.541260,275.754730 301.032074,275.737335 
	C302.408936,275.736267 303.785706,275.588196 306.056763,275.456787 
	C291.533264,265.047668 278.305145,254.666519 268.511902,239.515900 
	C274.191956,239.515900 278.848389,239.358871 283.482880,239.608658 
	C284.930695,239.686691 286.708893,240.512650 287.676086,241.589066 
	C300.605011,255.977844 316.874359,265.673248 333.736481,274.519440 
	C335.401123,275.392731 337.527313,275.725708 339.441132,275.731873 
	C357.600037,275.790222 375.759369,275.715942 393.918579,275.695374 
	C406.157959,275.681519 418.397339,275.692719 430.636719,275.692719 
	C429.358948,274.206970 427.881165,273.705658 426.428253,273.140472 
	C403.973572,264.405548 381.314270,256.152008 359.145020,246.743942 
	C345.036285,240.756531 332.010895,232.485794 320.928436,221.628479 
	C303.844940,204.892044 303.295898,186.420547 319.329285,168.738510 
	C330.449127,156.475266 344.244598,147.730270 358.526550,139.766159 
	C371.683716,132.429260 385.086456,125.532822 398.381042,118.442360 
	C398.370819,118.139137 398.360626,117.835915 398.350403,117.532700 
	C392.926300,118.290924 387.502167,119.049149 382.120575,119.145081 
	C383.396545,117.093094 384.672516,115.041100 386.630219,112.991135 
	C387.416534,112.667931 388.202820,112.344727 389.773560,112.014107 
	C393.279938,110.995842 396.845764,110.137505 400.259338,108.869499 
	C401.399994,108.445778 402.774445,107.090904 402.983887,105.964882 
	C404.843933,95.965317 400.663208,91.491898 390.561523,90.813675 
	C376.352356,89.859665 362.195587,94.369263 347.420441,90.411835 
	C342.393341,89.620956 337.388275,88.374344 332.334778,88.130318 
	C320.358643,87.552010 308.955566,90.638588 298.208466,95.538795 
	C289.550629,99.486389 281.383240,104.509499 272.994171,108.238914 
	C272.965851,107.424133 272.937500,106.609352 273.321045,105.270920 
	C293.751495,91.152740 316.009247,82.936272 342.170227,84.877609 
	C331.360565,72.972076 318.764282,68.041595 304.001526,68.604820 
	C291.728699,69.073036 281.815338,74.978119 272.385834,82.700577 
	C271.581024,81.783524 270.776215,80.866470 270.222565,79.309990 
	C272.693451,77.783264 272.251953,76.368401 270.177063,74.809486 
	C265.674530,71.426605 261.235931,67.958679 256.411774,63.944798 
M398.203888,180.029602 
	C401.237701,179.637573 404.271545,179.245544 407.904724,179.192184 
	C409.464935,181.911636 411.020050,184.634033 412.586395,187.349945 
	C415.735901,192.810760 419.407959,194.123627 425.064850,191.820450 
	C429.003052,190.217026 429.612305,188.224884 427.262329,184.536697 
	C423.877106,179.223679 420.476379,173.920547 417.087677,168.621628 
	C425.487091,162.890976 428.222809,156.414047 426.097229,147.633209 
	C424.294495,140.186203 418.753876,135.688126 409.064636,134.767075 
	C402.452515,134.138535 395.759216,134.295090 389.101166,134.245209 
	C385.469818,134.217972 383.642975,136.151855 383.656799,139.875702 
	C383.715546,155.703903 383.675140,171.532776 383.836975,187.359711 
	C383.851562,188.786026 384.864197,191.271255 385.741333,191.427872 
	C388.926422,191.996674 392.370850,192.293808 395.454285,191.570953 
	C396.449158,191.337723 396.787781,187.672028 397.140625,185.529449 
	C397.435486,183.739288 397.313049,181.880371 398.203888,180.029602 
M550.283630,188.626968 
	C551.161011,189.052597 551.999878,189.609940 552.922852,189.879303 
	C555.749939,190.704391 558.604675,191.849670 561.459412,191.880936 
	C562.195374,191.888977 563.520142,188.287033 563.618530,186.296173 
	C563.848022,181.651184 563.417908,176.977859 563.396057,172.315353 
	C563.341309,160.653534 563.326416,148.991165 563.376038,137.329361 
	C563.396484,132.536209 560.378784,131.428024 556.482849,131.460190 
	C552.563538,131.492554 549.676025,132.568665 550.049377,137.536438 
	C550.377014,141.895935 550.117798,146.299530 550.117798,150.859879 
	C537.106079,147.063248 527.150696,151.771912 524.649414,163.403214 
	C523.469177,168.891663 523.512146,175.140747 524.871948,180.577179 
	C527.973572,192.977371 539.115173,196.488068 550.283630,188.626968 
M714.745972,150.587921 
	C707.326721,148.384827 705.271667,150.141953 705.748718,157.616440 
	C706.150818,163.917252 706.085815,170.251328 706.120972,176.571274 
	C706.168152,185.056229 706.180786,193.542618 706.074219,202.026703 
	C706.016357,206.634109 708.490540,208.208893 712.655090,208.139435 
	C717.772949,208.054077 719.318604,206.572098 719.258362,201.854767 
	C719.216553,198.582596 719.250305,195.309479 719.250305,191.741776 
	C720.739441,192.010483 721.707764,192.134933 722.651001,192.363113 
	C732.945129,194.853500 741.554077,190.370758 744.498901,180.262970 
	C745.724365,176.056870 745.982910,171.397064 745.778076,166.985474 
	C745.447449,159.861465 743.004700,153.387039 735.859070,150.371185 
	C729.003418,147.477722 722.843018,149.360641 717.736755,154.745697 
	C716.863464,153.392853 716.096497,152.204712 714.745972,150.587921 
M658.827271,202.135086 
	C658.525146,207.364838 661.898682,208.171890 665.986145,208.021042 
	C670.096191,207.869385 672.549683,206.270493 672.076660,201.556732 
	C671.756897,198.370422 672.015625,195.126068 672.015625,191.806488 
	C687.847351,194.836548 696.242493,189.659927 698.524292,175.669586 
	C699.102966,172.121536 698.931396,168.340927 698.461731,164.751282 
	C696.475464,149.570099 680.931213,144.036652 670.493286,154.735657 
	C669.830017,153.614777 669.413452,151.888519 668.494324,151.557480 
	C666.139709,150.709396 663.424500,149.807236 661.127380,150.274094 
	C659.870728,150.529495 658.349121,153.517700 658.346802,155.275375 
	C658.326782,170.586319 658.623718,185.897690 658.827271,202.135086 
M464.090393,151.225632 
	C453.028259,146.970901 443.081573,148.992676 437.438690,156.642822 
	C431.703796,164.417770 431.517639,178.324661 437.502533,185.667114 
	C439.510437,188.130432 442.366852,190.334473 445.295319,191.537033 
	C455.660004,195.793152 467.718353,191.707275 472.145905,182.894669 
	C477.886200,171.469299 474.664673,157.861252 464.090393,151.225632 
M500.961823,160.419876 
	C502.020172,161.920975 503.078522,163.422058 503.974640,164.693008 
	C497.393463,166.489792 491.597687,167.442612 486.346558,169.676056 
	C480.659760,172.094864 478.584991,177.925629 480.050964,183.931427 
	C481.355682,189.276764 485.761841,193.128769 491.836853,192.672440 
	C496.391357,192.330322 500.821716,190.335403 505.795288,188.939392 
	C505.441132,188.464111 505.743713,188.827972 506.000702,189.221619 
	C508.268250,192.695328 511.889801,193.755066 515.047974,191.929916 
	C516.649719,191.004303 517.192749,187.289566 517.238525,184.817734 
	C517.351990,178.687271 516.824707,172.547974 516.703064,166.409286 
	C516.569824,159.692688 515.056458,153.624863 508.173523,150.863342 
	C500.163147,147.649490 492.062805,148.208527 484.831909,152.880066 
	C483.417572,153.793823 483.103088,158.064697 483.849030,160.252701 
	C484.802094,163.048264 487.459503,163.157806 490.514282,161.882706 
	C493.451660,160.656586 496.908875,160.675873 500.961823,160.419876 
M789.920532,171.977081 
	C791.246094,155.419678 780.468079,145.478683 765.803345,149.732788 
	C757.545471,152.128326 752.026733,159.011124 751.170837,168.590668 
	C750.385376,177.382141 752.319092,185.242142 760.555481,190.125992 
	C767.892639,194.476593 780.177979,193.899200 786.244019,189.302521 
	C788.924988,187.270905 789.050598,185.049622 787.507446,182.380859 
	C785.987427,179.752121 784.122559,178.479584 780.955688,180.011261 
	C778.897522,181.006683 776.627808,181.842148 774.377197,182.107605 
	C768.708130,182.776260 765.610229,180.368790 765.168701,175.194885 
	C771.494995,175.194885 777.811218,175.372299 784.106323,175.085861 
	C785.974365,175.000854 787.783081,173.611145 789.920532,171.977081 
M594.506897,192.406616 
	C598.029907,191.308121 600.491333,189.629440 599.449463,185.226013 
	C598.526855,181.326706 596.590576,180.074814 592.609497,181.060608 
	C591.683777,181.289841 589.192322,179.280914 589.121643,178.191452 
	C588.759766,172.616333 588.954285,167.005112 588.954285,161.277328 
	C593.471680,160.679153 599.160706,162.701157 599.184692,155.424881 
	C599.209900,147.794327 592.916565,151.102936 589.468445,149.885208 
	C587.177246,145.778061 592.465088,137.877029 582.961731,137.864761 
	C577.001892,137.857071 576.837952,138.022232 574.953857,149.967453 
	C570.561340,149.837021 567.839600,152.348892 568.827271,156.654877 
	C569.356323,158.961029 572.215149,160.732742 574.022522,162.745636 
	C574.558105,162.463181 575.093689,162.180725 575.629272,161.898270 
	C575.629272,167.046967 575.480957,172.200806 575.658569,177.343384 
	C576.100708,190.147552 580.955872,194.209976 594.506897,192.406616 
M799.692200,191.904663 
	C800.496399,192.118469 801.288635,192.435944 802.106628,192.529739 
	C808.938599,193.313248 810.456299,191.972092 810.449341,185.243149 
	C810.444397,180.412811 810.661865,175.569885 810.382690,170.755630 
	C810.098877,165.863724 812.695190,163.726959 816.956421,162.974731 
	C823.708679,161.782761 824.312500,161.108170 824.055542,154.133469 
	C823.904480,150.032898 821.822754,148.016510 817.986633,149.394852 
	C814.731445,150.564514 811.950989,153.055679 808.875977,155.015976 
	C808.868469,154.999542 808.484375,154.277725 808.200989,153.518311 
	C806.830261,149.845215 803.943726,149.171631 800.511780,149.631866 
	C796.475220,150.173157 796.841492,153.218277 796.873352,156.090897 
	C796.982361,165.917435 796.974548,175.746826 797.244507,185.568726 
	C797.299377,187.565460 798.369568,189.534286 799.692200,191.904663 
M604.053162,154.832581 
	C604.396606,160.457611 604.854126,166.078659 605.050659,171.708817 
	C605.235901,177.017548 605.097107,182.336746 605.192200,187.649704 
	C605.277405,192.410965 608.806641,192.689621 612.228699,192.611862 
	C615.480713,192.537949 618.558228,192.155777 618.270630,187.413300 
	C617.989990,182.785889 618.278564,178.119965 618.398682,173.473068 
	C618.622559,164.811432 619.419006,163.971771 627.939697,163.074539 
	C631.327454,162.717789 633.663818,157.979782 632.706665,153.216354 
	C631.921753,149.310455 629.011658,148.357864 625.933777,149.685547 
	C622.735596,151.065094 619.970581,153.448853 616.917053,155.458694 
	C615.776794,152.198059 613.743042,148.662552 609.073975,149.718185 
	C607.171814,150.148254 605.705444,152.506012 604.053162,154.832581 
M650.118286,176.491531 
	C650.099792,169.327957 650.136353,162.163666 650.043274,155.001068 
	C649.981812,150.270844 646.530701,149.969116 643.019409,149.964355 
	C639.782715,149.959961 636.944214,150.468002 636.973206,154.744720 
	C637.047729,165.739502 637.079956,176.734818 637.067627,187.729843 
	C637.062012,192.745514 640.733093,192.667175 644.041199,192.661606 
	C647.316101,192.656097 650.500916,192.182373 650.167969,187.478668 
	C649.933289,184.163269 650.120117,180.818039 650.118286,176.491531 
M254.088303,111.858864 
	C255.077881,109.129250 256.067444,106.399635 257.229065,103.195404 
	C241.651443,102.514359 227.138062,101.879837 212.624664,101.245316 
	C212.565735,101.494331 212.506821,101.743340 212.447891,101.992348 
	C226.054230,105.300423 239.660583,108.608505 254.088303,111.858864 
M317.880188,63.140076 
	C317.880188,49.050270 317.880188,34.960464 317.880188,21.712143 
	C314.766388,35.065033 311.435638,49.348103 307.878662,64.601425 
	C311.561127,64.396942 314.666473,64.224510 317.880188,63.140076 
M274.156219,50.270500 
	C270.730865,45.143959 267.305511,40.017422 263.880157,34.890881 
	C263.539154,35.094051 263.198151,35.297226 262.857178,35.500397 
	C267.799957,47.867355 272.742706,60.234318 277.787598,72.856781 
	C280.827820,71.176575 283.350861,69.782204 286.119659,68.251999 
	C282.097260,62.198246 278.332367,56.532089 274.156219,50.270500 
M337.377655,55.967838 
	C339.994843,47.930595 342.612061,39.893356 345.229248,31.856113 
	C344.896149,31.730980 344.563049,31.605844 344.229980,31.480709 
	C337.507050,43.066555 330.784149,54.652401 323.918060,66.484985 
	C326.993988,67.894241 329.639221,69.106171 332.639313,70.480675 
	C334.259491,65.527443 335.699036,61.126522 337.377655,55.967838 
M670.065857,218.084610 
	C669.424011,218.799423 668.100281,219.725891 668.246277,220.196121 
	C669.621277,224.625610 671.160278,229.011505 672.863403,233.326523 
	C673.273743,234.366058 674.467896,235.096207 675.301514,235.968628 
	C676.038025,234.989380 677.020203,234.109467 677.464172,233.011871 
	C678.682678,229.998856 679.675171,226.894424 681.192017,222.592911 
	C682.742554,227.258743 683.794128,230.653976 685.033325,233.979340 
	C685.319275,234.746521 686.155701,235.558990 686.914795,235.802887 
	C687.350403,235.942841 688.486572,235.110626 688.715454,234.495758 
	C690.701904,229.158737 692.554077,223.771729 694.900024,217.111130 
	C688.280151,219.846100 690.193726,226.002640 686.799744,229.625443 
	C685.873474,227.100418 685.186218,224.775177 684.170105,222.603851 
	C683.394531,220.946518 682.202393,219.484116 681.195557,217.934952 
	C680.088318,219.576309 678.770386,221.117264 677.928162,222.884918 
	C676.917786,225.005524 676.313049,227.319382 675.077942,230.848953 
	C673.339661,225.840897 672.058655,222.150330 670.065857,218.084610 
M290.210052,39.497845 
	C290.864166,48.233849 291.518250,56.969852 292.206024,66.155678 
	C295.629547,65.497627 298.607544,64.925209 301.868378,64.298424 
	C298.061340,51.845558 294.395844,39.855625 290.730347,27.865692 
	C290.202240,28.024046 289.674133,28.182400 289.146027,28.340754 
	C289.482178,31.751673 289.818329,35.162594 290.210052,39.497845 
M254.114090,119.601128 
	C242.501358,122.799103 230.888626,125.997086 219.275894,129.195053 
	C219.365952,129.792648 219.456024,130.390228 219.546097,130.987808 
	C231.763275,130.205383 243.980438,129.422974 256.853973,128.598526 
	C256.043793,125.434212 255.359299,122.760742 254.114090,119.601128 
M655.770996,211.742950 
	C654.505554,212.082199 652.450806,212.055222 652.097229,212.817490 
	C648.658020,220.230148 645.503662,227.774902 642.268127,235.282013 
	C642.744690,235.584686 643.221313,235.887344 643.697876,236.190018 
	C644.645996,235.159760 646.029907,234.281693 646.453674,233.068329 
	C647.409058,230.332581 649.123413,229.376160 651.765076,230.011749 
	C655.225830,230.844452 659.910400,227.572617 662.026367,233.216995 
	C662.485168,234.440765 664.178711,235.201660 665.303528,236.175751 
	C665.625061,235.791321 665.946533,235.406876 666.268066,235.022446 
	C662.923950,227.449402 659.579773,219.876358 655.770996,211.742950 
M356.448090,64.889076 
	C358.887726,61.041836 361.327362,57.194592 363.766998,53.347351 
	C363.322296,52.933849 362.877594,52.520348 362.432922,52.106842 
	C354.365692,59.226036 346.298462,66.345230 337.892853,73.763062 
	C340.445190,76.041504 342.724243,78.076004 345.252869,80.333282 
	C349.032776,75.113556 352.522736,70.294228 356.448090,64.889076 
M383.740570,69.488548 
	C372.161438,74.658524 360.582306,79.828491 349.003174,84.998466 
	C349.023346,85.538506 349.043518,86.078545 349.063690,86.618591 
	C352.962402,87.102730 357.916840,89.346184 360.569733,87.754250 
	C370.031097,82.076782 378.710327,75.095917 387.685547,68.608360 
	C387.611847,68.451103 387.538177,68.293846 387.464478,68.136589 
	C386.432129,68.473289 385.399811,68.809982 383.740570,69.488548 
M637.085083,134.769424 
	C636.865845,135.397934 636.552307,136.010544 636.443298,136.657608 
	C635.867615,140.074585 636.481812,143.245682 640.002319,144.538254 
	C643.363770,145.772461 647.535217,146.191330 649.384460,142.578186 
	C650.592224,140.218445 650.820374,135.681091 649.349243,134.063095 
	C647.622803,132.164169 643.604004,132.140228 640.524841,131.806870 
	C639.592407,131.705917 638.478882,133.277725 637.085083,134.769424 
M705.617676,225.066940 
	C705.119507,225.080887 704.607361,225.024475 704.125366,225.120010 
	C700.572815,225.824234 696.950012,226.713196 697.273254,231.386017 
	C697.533203,235.143845 701.346497,236.726273 706.314880,235.777466 
	C708.118408,235.433060 710.042908,235.722076 712.632996,235.722076 
	C712.632996,232.634689 713.101379,229.450043 712.498352,226.483170 
	C711.920959,223.643051 710.945984,219.991638 708.863831,218.555634 
	C705.625000,216.321976 701.642639,217.392181 698.739441,220.949493 
	C700.560608,221.283737 702.323914,220.276352 703.876526,220.534790 
	C705.678406,220.834702 707.295349,222.245651 708.992554,223.174347 
	C708.154785,223.804138 707.316956,224.433929 705.617676,225.066940 
M616.465515,219.951797 
	C615.426941,219.207611 614.388306,218.463425 613.349731,217.719223 
	C613.042419,218.054047 612.735168,218.388855 612.427856,218.723679 
	C614.627747,223.521439 616.817322,228.323944 619.031067,233.115326 
	C620.533691,236.367584 619.853943,238.481567 616.101379,239.313782 
	C615.155945,239.523453 614.347412,240.350311 613.475952,240.893539 
	C613.862000,241.575516 614.247986,242.257477 614.634033,242.939453 
	C616.948853,241.738846 620.398438,241.123322 621.373535,239.231995 
	C624.806702,232.573364 627.390259,225.476730 630.296143,218.546280 
	C629.619690,218.171707 628.943237,217.797150 628.266785,217.422577 
	C624.648193,220.980362 624.670105,226.852432 621.551147,231.313477 
	C619.861145,227.488327 618.342407,224.050781 616.465515,219.951797 
M536.683228,220.121078 
	C536.679321,223.443359 536.458618,226.783112 536.724609,230.083649 
	C537.085815,234.566208 540.391296,236.754135 544.747192,235.890060 
	C546.968384,235.449432 549.240906,235.267395 551.934204,234.909454 
	C551.934204,229.804260 551.934204,223.984039 551.934204,218.163803 
	C551.562683,217.995148 551.191101,217.826492 550.819580,217.657852 
	C550.276062,218.489380 549.344116,219.284851 549.263000,220.159302 
	C549.033569,222.632477 549.109619,225.138596 549.144348,227.630646 
	C549.197937,231.477814 546.939514,233.059174 543.507446,233.055588 
	C540.063049,233.051987 539.734253,230.477814 539.779297,227.785706 
	C539.820984,225.293579 539.948853,222.791580 539.786255,220.310486 
	C539.625000,217.851273 539.486633,217.860352 536.683228,220.121078 
M592.759583,226.585220 
	C593.003052,231.700531 595.422913,235.147415 600.608276,235.973740 
	C604.026611,236.518463 607.278015,236.007385 609.461304,232.040100 
	C597.935425,232.467819 597.935425,232.467819 596.755371,228.042511 
	C601.260559,228.042511 605.663940,228.042511 610.037415,228.042511 
	C610.164856,221.628433 607.709900,218.316452 602.745056,217.753525 
	C597.492188,217.157913 594.254822,219.799103 592.759583,226.585220 
M575.620911,229.431351 
	C575.600464,228.268219 575.506775,227.100891 575.573364,225.942764 
	C575.767883,222.558426 577.602905,220.688477 580.992371,220.779068 
	C584.346191,220.868683 584.864014,223.301315 584.843079,226.032410 
	C584.822754,228.691452 584.780640,231.354950 584.922302,234.007172 
	C584.955627,234.632538 585.687805,235.220581 586.098450,235.825821 
	C586.704163,235.237167 587.799622,234.675507 587.833801,234.055298 
	C588.016541,230.741470 588.143188,227.397247 587.893616,224.093414 
	C587.535095,219.345871 584.267639,217.082916 579.596436,217.876495 
	C577.405518,218.248718 575.175476,218.390366 573.048706,218.626984 
	C573.048706,224.166275 573.048706,230.011795 573.048706,235.857300 
	C573.661499,235.901840 574.274292,235.946396 574.887024,235.990952 
	C575.133667,234.102097 575.380371,232.213257 575.620911,229.431351 
M531.877747,226.607330 
	C530.291870,220.279953 527.526306,217.654327 522.385010,217.730499 
	C518.040833,217.794846 515.206543,220.014297 514.004395,224.142563 
	C512.472229,229.404297 515.367798,234.686310 520.302917,235.880020 
	C525.939880,237.243469 530.309998,234.041046 531.877747,226.607330 
M428.812012,230.389557 
	C430.311951,234.251236 433.355042,236.545837 437.237335,235.827667 
	C439.990875,235.318314 443.136139,233.507767 444.797974,231.295151 
	C447.470367,227.737076 446.400238,223.634903 443.358032,220.479691 
	C440.414185,217.426468 436.615051,216.800125 432.888702,218.704971 
	C428.447845,220.975067 427.363708,224.956421 428.812012,230.389557 
M426.514008,215.267456 
	C427.122253,214.102203 427.730499,212.936951 428.338745,211.771683 
	C427.736969,211.356323 427.135193,210.940964 426.533417,210.525589 
	C423.592010,214.518631 420.650574,218.511658 417.876404,222.277664 
	C413.896454,219.118607 413.648529,212.811325 407.925476,211.795700 
	C409.746246,216.072617 412.574310,219.661240 414.315979,223.716446 
	C415.944611,227.508347 416.421021,231.795135 417.404541,235.864120 
	C418.004791,235.870163 418.605042,235.876221 419.205322,235.882263 
	C417.824646,227.745239 421.869324,221.754929 426.514008,215.267456 
M450.886383,229.130142 
	C451.686096,234.871658 454.561157,237.021637 459.434906,235.761673 
	C461.443634,235.242371 463.571564,235.183884 466.306427,234.830322 
	C465.817230,229.698959 467.539398,223.721710 464.291260,218.036835 
	C463.218231,221.370255 463.231812,224.690079 463.214569,228.009750 
	C463.195984,231.590225 461.003143,233.084412 457.797760,233.143951 
	C454.356903,233.207870 453.928864,230.742371 453.972748,228.000381 
	C454.025818,224.685928 453.985352,221.369995 453.985352,218.054718 
	C453.156189,218.008728 452.326996,217.962723 451.497833,217.916733 
	C451.295776,221.350037 451.093689,224.783325 450.886383,229.130142 
M753.067749,219.767395 
	C751.948792,219.126022 750.895447,218.132736 749.698486,217.909256 
	C746.108093,217.238937 742.306641,217.230804 740.998169,221.470184 
	C739.626953,225.913025 743.151001,227.053864 746.473633,228.163254 
	C748.042786,228.687180 749.453552,229.685440 750.992310,230.498505 
	C747.844849,236.072662 743.525024,230.487946 739.881897,232.447464 
	C742.591187,236.279984 746.162659,236.742966 749.659973,235.524216 
	C751.332581,234.941330 753.379028,232.692322 753.534119,231.036591 
	C753.913208,226.991425 750.243591,226.242676 747.246704,225.233780 
	C747.089417,225.180832 746.879333,225.195557 746.772644,225.095108 
	C745.792297,224.172241 744.829407,223.230865 743.861511,222.294846 
	C745.259460,221.680969 746.607788,220.784256 748.068481,220.528030 
	C749.728760,220.236801 751.489502,220.518051 753.067749,219.767395 
M731.976746,215.766891 
	C731.460510,214.699356 730.944336,213.631821 730.286682,212.271805 
	C728.584473,215.471039 727.421997,217.655960 726.862549,218.707352 
	C727.707947,221.273315 728.570984,223.075409 728.854980,224.964569 
	C729.198975,227.253189 728.574402,229.774338 729.277466,231.893433 
	C729.801941,233.474548 731.567139,235.084930 733.162292,235.717056 
	C734.250610,236.148346 735.998474,234.915527 737.451416,234.426743 
	C731.442261,232.361298 731.442261,232.361298 732.282166,221.344147 
	C733.621643,220.796997 734.961060,220.249863 736.870972,219.469711 
	C734.728516,218.200150 733.359558,217.388962 731.976746,215.766891 
M562.243042,223.368393 
	C564.268372,221.969376 566.293762,220.570374 569.384521,218.435425 
	C565.030090,218.435425 562.073975,218.435425 558.581726,218.435425 
	C559.024963,224.145157 557.686707,230.031021 559.262939,235.724808 
	C559.792480,235.727386 560.322021,235.729950 560.851562,235.732513 
	C561.206909,231.874847 561.562256,228.017181 562.243042,223.368393 
M475.904694,229.535065 
	C473.830261,223.653046 479.743652,221.897354 483.076385,218.062302 
	C479.060211,218.436157 476.318573,218.691360 472.833679,219.015762 
	C472.833679,223.307541 472.778503,228.383102 472.892487,233.454865 
	C472.909851,234.226807 473.711395,234.981140 474.150238,235.743607 
	C474.731049,234.962982 475.543274,234.257645 475.828522,233.380859 
	C476.121887,232.479172 475.901062,231.410172 475.904694,229.535065 
M719.720093,235.681519 
	C720.368408,235.302795 721.569946,234.939789 721.581299,234.542984 
	C721.726257,229.441284 721.770874,224.332748 721.623596,219.232254 
	C721.606873,218.654221 720.267883,218.114395 719.058594,217.185486 
	C719.058594,223.818771 719.058594,229.524826 719.720093,235.681519 
z"/>
<path fill="#204C71" opacity="1.000000" stroke="none" 
	d="
M382.078064,119.807373 
	C387.502167,119.049149 392.926300,118.290924 398.350403,117.532700 
	C398.360626,117.835915 398.370819,118.139137 398.381042,118.442360 
	C385.086456,125.532822 371.683716,132.429260 358.526550,139.766159 
	C344.244598,147.730270 330.449127,156.475266 319.329285,168.738510 
	C303.295898,186.420547 303.844940,204.892044 320.928436,221.628479 
	C332.010895,232.485794 345.036285,240.756531 359.145020,246.743942 
	C381.314270,256.152008 403.973572,264.405548 426.428253,273.140472 
	C427.881165,273.705658 429.358948,274.206970 430.636719,275.692719 
	C418.397339,275.692719 406.157959,275.681519 393.918579,275.695374 
	C375.759369,275.715942 357.600037,275.790222 339.441132,275.731873 
	C337.527313,275.725708 335.401123,275.392731 333.736481,274.519440 
	C316.874359,265.673248 300.605011,255.977844 287.676086,241.589066 
	C286.708893,240.512650 284.930695,239.686691 283.482880,239.608658 
	C278.848389,239.358871 274.191956,239.515900 268.511902,239.515900 
	C278.305145,254.666519 291.533264,265.047668 306.056763,275.456787 
	C303.785706,275.588196 302.408936,275.736267 301.032074,275.737335 
	C278.541260,275.754730 256.050232,275.799377 233.560104,275.675385 
	C231.615356,275.664673 228.959671,275.116180 227.846298,273.795624 
	C216.476501,260.309692 208.039398,245.376541 207.033279,227.264832 
	C206.075668,210.026505 212.895813,195.749908 224.740982,183.746048 
	C242.165131,166.088440 263.725311,155.057205 286.443451,145.979782 
	C287.060760,145.733139 287.670959,145.468826 288.942230,145.069458 
	C290.728912,144.378723 291.857880,143.831268 293.364502,143.204956 
	C319.477478,133.561859 346.063263,127.150970 373.310669,121.792740 
	C376.488922,121.145744 379.283508,120.476555 382.078064,119.807373 
M268.594849,217.745087 
	C270.134308,217.745087 271.673767,217.745087 273.651520,217.745087 
	C270.321014,206.413788 272.424347,196.214554 277.362030,185.109283 
	C272.870636,185.552444 267.765839,184.591904 266.355591,186.444183 
	C259.609436,195.304993 256.960754,205.612183 258.928894,217.065323 
	C262.076385,217.292542 264.877045,217.494736 268.594849,217.745087 
M298.393188,156.865753 
	C292.725311,160.934967 287.057465,165.004166 281.389587,169.073380 
	C281.582825,169.552689 281.776062,170.031982 281.969299,170.511276 
	C284.642639,170.367905 288.011292,171.211563 289.865509,169.905396 
	C296.830383,164.999008 303.301178,159.391327 309.964539,154.040466 
	C305.466766,150.638184 302.470490,154.649628 298.393188,156.865753 
M339.552490,137.076935 
	C334.370453,139.211258 329.188416,141.345566 324.006348,143.479874 
	C324.239624,144.032227 324.472900,144.584579 324.706146,145.136932 
	C332.130127,144.200165 338.154175,139.739227 344.830505,136.920319 
	C344.695496,136.530441 344.560486,136.140579 344.425476,135.750702 
	C343.050323,136.123856 341.675201,136.496994 339.552490,137.076935 
z"/>
<path fill="#214B72" opacity="1.000000" stroke="none" 
	d="
M397.375366,180.051910 
	C397.313049,181.880371 397.435486,183.739288 397.140625,185.529449 
	C396.787781,187.672028 396.449158,191.337723 395.454285,191.570953 
	C392.370850,192.293808 388.926422,191.996674 385.741333,191.427872 
	C384.864197,191.271255 383.851562,188.786026 383.836975,187.359711 
	C383.675140,171.532776 383.715546,155.703903 383.656799,139.875702 
	C383.642975,136.151855 385.469818,134.217972 389.101166,134.245209 
	C395.759216,134.295090 402.452515,134.138535 409.064636,134.767075 
	C418.753876,135.688126 424.294495,140.186203 426.097229,147.633209 
	C428.222809,156.414047 425.487091,162.890976 417.087677,168.621628 
	C420.476379,173.920547 423.877106,179.223679 427.262329,184.536697 
	C429.612305,188.224884 429.003052,190.217026 425.064850,191.820450 
	C419.407959,194.123627 415.735901,192.810760 412.586395,187.349945 
	C411.020050,184.634033 409.464935,181.911636 407.588593,178.646469 
	C404.509674,170.964188 404.113586,170.708389 397.375366,171.925522 
	C397.375366,174.596588 397.375366,177.324249 397.375366,180.051910 
M408.930908,159.746414 
	C412.818237,157.345428 413.630981,153.882126 411.944855,149.896118 
	C410.194916,145.759308 404.587982,144.438766 397.545349,146.154373 
	C397.545349,150.904846 397.545349,155.614136 397.545349,160.945435 
	C401.369141,160.610626 404.773804,160.312531 408.930908,159.746414 
z"/>
<path fill="#C8C8C9" opacity="1.000000" stroke="none" 
	d="
M348.014038,90.938843 
	C362.195587,94.369263 376.352356,89.859665 390.561523,90.813675 
	C400.663208,91.491898 404.843933,95.965317 402.983887,105.964882 
	C402.774445,107.090904 401.399994,108.445778 400.259338,108.869499 
	C396.845764,110.137505 393.279938,110.995842 389.371338,111.598145 
	C388.817749,102.080711 383.123871,96.450897 374.678680,97.052490 
	C365.880157,97.679268 361.566833,105.541840 363.630341,118.130257 
	C360.486633,118.770119 357.299866,119.418762 353.752502,119.905579 
	C351.337250,118.479485 349.313507,117.160233 347.212372,115.978622 
	C346.396851,115.520004 345.357941,115.025185 344.504150,115.144295 
	C341.090973,115.620476 337.609253,116.025497 334.365479,117.099075 
	C332.977264,117.558525 332.109802,119.591286 330.586243,120.944069 
	C324.113922,121.835732 318.061066,122.692482 311.474396,123.624802 
	C317.772736,126.926743 323.335907,123.186684 329.004700,123.387604 
	C329.393738,124.535873 329.780487,125.332306 329.875671,126.373535 
	C324.428741,127.762207 319.273285,128.906097 313.804565,129.904907 
	C307.652161,123.997269 301.753479,118.292831 296.028503,112.419044 
	C294.986664,111.350113 294.654663,109.589264 294.422455,108.096519 
	C313.196564,104.422134 331.543182,100.799057 350.966553,96.963341 
	C349.135468,95.252609 348.549286,94.704933 347.973938,93.755554 
	C347.994537,92.548851 348.004303,91.743851 348.014038,90.938843 
M388.279846,96.586815 
	C391.041260,96.402458 393.802673,96.218094 396.564087,96.033730 
	C396.552734,95.319939 396.541351,94.606148 396.529999,93.892349 
	C392.566345,93.576622 388.602692,93.260895 384.639038,92.945168 
	C384.544800,93.398796 384.450592,93.852417 384.356354,94.306046 
	C385.422882,94.955536 386.489380,95.605026 388.279846,96.586815 
z"/>
<path fill="#224D74" opacity="1.000000" stroke="none" 
	d="
M550.008911,188.891663 
	C539.115173,196.488068 527.973572,192.977371 524.871948,180.577179 
	C523.512146,175.140747 523.469177,168.891663 524.649414,163.403214 
	C527.150696,151.771912 537.106079,147.063248 550.117798,150.859879 
	C550.117798,146.299530 550.377014,141.895935 550.049377,137.536438 
	C549.676025,132.568665 552.563538,131.492554 556.482849,131.460190 
	C560.378784,131.428024 563.396484,132.536209 563.376038,137.329361 
	C563.326416,148.991165 563.341309,160.653534 563.396057,172.315353 
	C563.417908,176.977859 563.848022,181.651184 563.618530,186.296173 
	C563.520142,188.287033 562.195374,191.888977 561.459412,191.880936 
	C558.604675,191.849670 555.749939,190.704391 552.922852,189.879303 
	C551.999878,189.609940 551.161011,189.052597 550.008911,188.891663 
M546.295654,160.299500 
	C541.897827,159.910706 538.888916,161.740662 537.453125,165.946243 
	C535.816956,170.738663 536.856995,178.889160 539.822937,180.468369 
	C541.616089,181.423157 544.605774,181.782410 546.256592,180.903839 
	C548.023865,179.963364 550.142700,177.023056 549.844421,175.362045 
	C548.957581,170.422821 553.570129,164.340546 546.295654,160.299500 
z"/>
<path fill="#F78C2B" opacity="1.000000" stroke="none" 
	d="
M715.037720,150.802246 
	C716.096497,152.204712 716.863464,153.392853 717.736755,154.745697 
	C722.843018,149.360641 729.003418,147.477722 735.859070,150.371185 
	C743.004700,153.387039 745.447449,159.861465 745.778076,166.985474 
	C745.982910,171.397064 745.724365,176.056870 744.498901,180.262970 
	C741.554077,190.370758 732.945129,194.853500 722.651001,192.363113 
	C721.707764,192.134933 720.739441,192.010483 719.250305,191.741776 
	C719.250305,195.309479 719.216553,198.582596 719.258362,201.854767 
	C719.318604,206.572098 717.772949,208.054077 712.655090,208.139435 
	C708.490540,208.208893 706.016357,206.634109 706.074219,202.026703 
	C706.180786,193.542618 706.168152,185.056229 706.120972,176.571274 
	C706.085815,170.251328 706.150818,163.917252 705.748718,157.616440 
	C705.271667,150.141953 707.326721,148.384827 715.037720,150.802246 
M719.139771,175.222687 
	C718.595093,178.935150 719.889709,181.303696 723.842529,181.894958 
	C727.737915,182.477631 730.742615,180.937515 731.510559,177.253845 
	C732.299805,173.468552 732.437683,169.393402 731.989990,165.546402 
	C731.517395,161.486145 728.264526,160.345718 724.508423,160.945663 
	C720.958374,161.512680 718.772400,163.290680 719.116821,167.324554 
	C719.314026,169.634125 719.143677,171.975098 719.139771,175.222687 
z"/>
<path fill="#F68A2A" opacity="1.000000" stroke="none" 
	d="
M658.826904,201.671997 
	C658.623718,185.897690 658.326782,170.586319 658.346802,155.275375 
	C658.349121,153.517700 659.870728,150.529495 661.127380,150.274094 
	C663.424500,149.807236 666.139709,150.709396 668.494324,151.557480 
	C669.413452,151.888519 669.830017,153.614777 670.493286,154.735657 
	C680.931213,144.036652 696.475464,149.570099 698.461731,164.751282 
	C698.931396,168.340927 699.102966,172.121536 698.524292,175.669586 
	C696.242493,189.659927 687.847351,194.836548 672.015625,191.806488 
	C672.015625,195.126068 671.756897,198.370422 672.076660,201.556732 
	C672.549683,206.270493 670.096191,207.869385 665.986145,208.021042 
	C661.898682,208.171890 658.525146,207.364838 658.826904,201.671997 
M673.546204,180.832352 
	C677.629883,182.720932 682.124146,183.010361 683.633545,178.312134 
	C685.012024,174.021164 684.749451,168.990433 684.180725,164.413635 
	C684.006104,163.008057 680.449463,161.120926 678.422791,161.097885 
	C676.345642,161.074280 672.561523,162.916519 672.449341,164.198120 
	C671.983582,169.519882 672.622681,174.938339 673.546204,180.832352 
z"/>
<path fill="#F08824" opacity="1.000000" stroke="none" 
	d="
M266.920044,108.947372 
	C265.194000,109.340279 263.467957,109.733177 260.521759,110.403831 
	C261.413635,106.411171 262.156067,103.087418 263.136658,99.112106 
	C266.563507,93.296356 269.752228,88.132164 272.940948,82.967987 
	C281.815338,74.978119 291.728699,69.073036 304.001526,68.604820 
	C318.764282,68.041595 331.360565,72.972076 342.170227,84.877609 
	C316.009247,82.936272 293.751495,91.152740 272.776550,105.606277 
	C270.461395,106.943550 268.690735,107.945465 266.920044,108.947372 
z"/>
<path fill="#224D74" opacity="1.000000" stroke="none" 
	d="
M464.415588,151.420105 
	C474.664673,157.861252 477.886200,171.469299 472.145905,182.894669 
	C467.718353,191.707275 455.660004,195.793152 445.295319,191.537033 
	C442.366852,190.334473 439.510437,188.130432 437.502533,185.667114 
	C431.517639,178.324661 431.703796,164.417770 437.438690,156.642822 
	C443.081573,148.992676 453.028259,146.970901 464.415588,151.420105 
M446.925751,174.963318 
	C447.560608,179.284836 449.642303,182.207748 454.404816,181.958496 
	C459.217194,181.706635 460.867279,178.283752 461.169220,174.137360 
	C461.372559,171.344757 461.332001,168.448074 460.809937,165.710617 
	C460.143738,162.217682 457.658478,160.304962 454.036774,160.217529 
	C450.307983,160.127518 447.971436,162.226669 447.275818,165.652634 
	C446.721252,168.383881 446.950623,171.274307 446.925751,174.963318 
z"/>
<path fill="#244E75" opacity="1.000000" stroke="none" 
	d="
M500.549744,160.283905 
	C496.908875,160.675873 493.451660,160.656586 490.514282,161.882706 
	C487.459503,163.157806 484.802094,163.048264 483.849030,160.252701 
	C483.103088,158.064697 483.417572,153.793823 484.831909,152.880066 
	C492.062805,148.208527 500.163147,147.649490 508.173523,150.863342 
	C515.056458,153.624863 516.569824,159.692688 516.703064,166.409286 
	C516.824707,172.547974 517.351990,178.687271 517.238525,184.817734 
	C517.192749,187.289566 516.649719,191.004303 515.047974,191.929916 
	C511.889801,193.755066 508.268250,192.695328 506.000702,189.221619 
	C505.743713,188.827972 505.441132,188.464111 505.795288,188.939392 
	C500.821716,190.335403 496.391357,192.330322 491.836853,192.672440 
	C485.761841,193.128769 481.355682,189.276764 480.050964,183.931427 
	C478.584991,177.925629 480.659760,172.094864 486.346558,169.676056 
	C491.597687,167.442612 497.393463,166.489792 503.974640,164.693008 
	C503.078522,163.422058 502.020172,161.920975 500.549744,160.283905 
M503.500092,177.197464 
	C503.153809,176.208771 502.807526,175.220062 502.461243,174.231369 
	C499.282593,175.536255 496.103943,176.841156 492.925323,178.146027 
	C493.570984,179.639984 493.972900,182.225876 494.905518,182.434052 
	C498.458466,183.227051 501.822906,182.527008 503.296600,178.439667 
	C503.351959,178.286118 503.364227,178.117035 503.500092,177.197464 
z"/>
<path fill="#F68A2D" opacity="1.000000" stroke="none" 
	d="
M789.769775,172.398163 
	C787.783081,173.611145 785.974365,175.000854 784.106323,175.085861 
	C777.811218,175.372299 771.494995,175.194885 765.168701,175.194885 
	C765.610229,180.368790 768.708130,182.776260 774.377197,182.107605 
	C776.627808,181.842148 778.897522,181.006683 780.955688,180.011261 
	C784.122559,178.479584 785.987427,179.752121 787.507446,182.380859 
	C789.050598,185.049622 788.924988,187.270905 786.244019,189.302521 
	C780.177979,193.899200 767.892639,194.476593 760.555481,190.125992 
	C752.319092,185.242142 750.385376,177.382141 751.170837,168.590668 
	C752.026733,159.011124 757.545471,152.128326 765.803345,149.732788 
	C780.468079,145.478683 791.246094,155.419678 789.769775,172.398163 
M768.860046,166.809326 
	C771.766907,166.809326 774.673828,166.809326 777.896851,166.809326 
	C777.707947,161.960266 775.581482,159.550461 771.521057,159.528183 
	C767.335754,159.505188 764.917419,161.880386 764.461792,166.499481 
	C765.818054,166.615662 766.914307,166.709564 768.860046,166.809326 
z"/>
<path fill="#C6C6C8" opacity="1.000000" stroke="none" 
	d="
M293.994965,108.147827 
	C294.654663,109.589264 294.986664,111.350113 296.028503,112.419044 
	C301.753479,118.292831 307.652161,123.997269 313.527374,130.167953 
	C309.646759,131.509506 305.730011,132.442932 301.891571,133.357712 
	C298.312866,122.206291 289.715942,117.524323 281.979248,121.858261 
	C273.532715,125.050232 274.905029,132.352509 275.011230,138.957687 
	C265.885254,142.030319 260.102905,137.299484 260.957458,128.077164 
	C261.389130,123.418488 262.207245,118.269737 255.605392,115.499184 
	C260.105621,114.161491 263.668213,113.102509 267.918640,111.864670 
	C270.070374,110.809021 271.534302,109.932220 272.998230,109.055420 
	C281.383240,104.509499 289.550629,99.486389 298.208466,95.538795 
	C308.955566,90.638588 320.358643,87.552010 332.334778,88.130318 
	C337.388275,88.374344 342.393341,89.620956 347.717224,90.675339 
	C348.004303,91.743851 347.994537,92.548851 347.554749,93.723694 
	C333.480865,91.121773 319.956665,90.733032 306.684387,95.939766 
	C299.682434,98.686653 292.623688,101.334229 286.543579,108.147835 
	C289.829010,108.147835 291.911987,108.147835 293.994965,108.147827 
z"/>
<path fill="#F58A2C" opacity="1.000000" stroke="none" 
	d="
M594.113281,192.541672 
	C580.955872,194.209976 576.100708,190.147552 575.658569,177.343384 
	C575.480957,172.200806 575.629272,167.046967 575.629272,161.898270 
	C575.093689,162.180725 574.558105,162.463181 574.022522,162.745636 
	C572.215149,160.732742 569.356323,158.961029 568.827271,156.654877 
	C567.839600,152.348892 570.561340,149.837021 574.953857,149.967453 
	C576.837952,138.022232 577.001892,137.857071 582.961731,137.864761 
	C592.465088,137.877029 587.177246,145.778061 589.468445,149.885208 
	C592.916565,151.102936 599.209900,147.794327 599.184692,155.424881 
	C599.160706,162.701157 593.471680,160.679153 588.954285,161.277328 
	C588.954285,167.005112 588.759766,172.616333 589.121643,178.191452 
	C589.192322,179.280914 591.683777,181.289841 592.609497,181.060608 
	C596.590576,180.074814 598.526855,181.326706 599.449463,185.226013 
	C600.491333,189.629440 598.029907,191.308121 594.113281,192.541672 
z"/>
<path fill="#F68C2D" opacity="1.000000" stroke="none" 
	d="
M799.331970,191.710327 
	C798.369568,189.534286 797.299377,187.565460 797.244507,185.568726 
	C796.974548,175.746826 796.982361,165.917435 796.873352,156.090897 
	C796.841492,153.218277 796.475220,150.173157 800.511780,149.631866 
	C803.943726,149.171631 806.830261,149.845215 808.200989,153.518311 
	C808.484375,154.277725 808.868469,154.999542 808.875977,155.015976 
	C811.950989,153.055679 814.731445,150.564514 817.986633,149.394852 
	C821.822754,148.016510 823.904480,150.032898 824.055542,154.133469 
	C824.312500,161.108170 823.708679,161.782761 816.956421,162.974731 
	C812.695190,163.726959 810.098877,165.863724 810.382690,170.755630 
	C810.661865,175.569885 810.444397,180.412811 810.449341,185.243149 
	C810.456299,191.972092 808.938599,193.313248 802.106628,192.529739 
	C801.288635,192.435944 800.496399,192.118469 799.331970,191.710327 
z"/>
<path fill="#F68B2B" opacity="1.000000" stroke="none" 
	d="
M604.046997,154.409668 
	C605.705444,152.506012 607.171814,150.148254 609.073975,149.718185 
	C613.743042,148.662552 615.776794,152.198059 616.917053,155.458694 
	C619.970581,153.448853 622.735596,151.065094 625.933777,149.685547 
	C629.011658,148.357864 631.921753,149.310455 632.706665,153.216354 
	C633.663818,157.979782 631.327454,162.717789 627.939697,163.074539 
	C619.419006,163.971771 618.622559,164.811432 618.398682,173.473068 
	C618.278564,178.119965 617.989990,182.785889 618.270630,187.413300 
	C618.558228,192.155777 615.480713,192.537949 612.228699,192.611862 
	C608.806641,192.689621 605.277405,192.410965 605.192200,187.649704 
	C605.097107,182.336746 605.235901,177.017548 605.050659,171.708817 
	C604.854126,166.078659 604.396606,160.457611 604.046997,154.409668 
z"/>
<path fill="#F7F7F8" opacity="1.000000" stroke="none" 
	d="
M281.985840,122.241165 
	C289.715942,117.524323 298.312866,122.206291 301.891571,133.357712 
	C305.730011,132.442932 309.646759,131.509506 313.840698,130.313019 
	C319.273285,128.906097 324.428741,127.762207 330.270630,126.351410 
	C338.675751,124.078796 346.394409,122.073097 354.113068,120.067398 
	C357.299866,119.418762 360.486633,118.770119 363.630341,118.130257 
	C361.566833,105.541840 365.880157,97.679268 374.678680,97.052490 
	C383.123871,96.450897 388.817749,102.080711 388.979126,111.601852 
	C388.202820,112.344727 387.416534,112.667931 386.290161,112.581299 
	C385.940582,111.339592 386.036621,110.490524 385.904327,109.678673 
	C385.066559,104.538666 381.628143,100.870415 377.050995,100.159264 
	C373.291931,99.575211 368.413147,102.513039 366.765747,106.605797 
	C364.848328,111.369255 366.213165,115.344986 370.036469,118.643463 
	C371.104370,119.564804 371.969055,120.721703 372.926941,121.770554 
	C346.063263,127.150970 319.477478,133.561859 293.521179,142.884430 
	C296.784912,139.242645 299.221710,135.482651 297.178040,130.367447 
	C294.674927,124.102432 289.883331,122.408447 281.984924,124.911591 
	C281.987396,124.149086 281.989899,123.386581 281.985840,122.241165 
z"/>
<path fill="#F38C2C" opacity="1.000000" stroke="none" 
	d="
M650.118530,176.988831 
	C650.120117,180.818039 649.933289,184.163269 650.167969,187.478668 
	C650.500916,192.182373 647.316101,192.656097 644.041199,192.661606 
	C640.733093,192.667175 637.062012,192.745514 637.067627,187.729843 
	C637.079956,176.734818 637.047729,165.739502 636.973206,154.744720 
	C636.944214,150.468002 639.782715,149.959961 643.019409,149.964355 
	C646.530701,149.969116 649.981812,150.270844 650.043274,155.001068 
	C650.136353,162.163666 650.099792,169.327957 650.118530,176.988831 
z"/>
<path fill="#C8C8C9" opacity="1.000000" stroke="none" 
	d="
M281.691895,125.114487 
	C289.883331,122.408447 294.674927,124.102432 297.178040,130.367447 
	C299.221710,135.482651 296.784912,139.242645 293.143494,142.963287 
	C291.857880,143.831268 290.728912,144.378723 289.275574,144.920898 
	C288.570465,144.623703 288.231415,144.179459 287.802887,144.062119 
	C277.104248,141.132828 274.669769,134.033325 281.691895,125.114487 
z"/>
<path fill="#C9C9CA" opacity="1.000000" stroke="none" 
	d="
M373.310669,121.792740 
	C371.969055,120.721703 371.104370,119.564804 370.036469,118.643463 
	C366.213165,115.344986 364.848328,111.369255 366.765747,106.605797 
	C368.413147,102.513039 373.291931,99.575211 377.050995,100.159264 
	C381.628143,100.870415 385.066559,104.538666 385.904327,109.678673 
	C386.036621,110.490524 385.940582,111.339592 385.949280,112.580276 
	C384.672516,115.041100 383.396545,117.093094 382.099304,119.476227 
	C379.283508,120.476555 376.488922,121.145744 373.310669,121.792740 
z"/>
<path fill="#F09032" opacity="1.000000" stroke="none" 
	d="
M253.677612,111.887726 
	C239.660583,108.608505 226.054230,105.300423 212.447891,101.992348 
	C212.506821,101.743340 212.565735,101.494331 212.624664,101.245316 
	C227.138062,101.879837 241.651443,102.514359 257.229065,103.195404 
	C256.067444,106.399635 255.077881,109.129250 253.677612,111.887726 
z"/>
<path fill="#ED9033" opacity="1.000000" stroke="none" 
	d="
M317.826019,63.596077 
	C314.666473,64.224510 311.561127,64.396942 307.878662,64.601425 
	C311.435638,49.348103 314.766388,35.065033 317.880188,21.712143 
	C317.880188,34.960464 317.880188,49.050270 317.826019,63.596077 
z"/>
<path fill="#F18C2C" opacity="1.000000" stroke="none" 
	d="
M259.028198,97.084503 
	C251.221710,92.399933 243.402847,87.735809 235.613785,83.022415 
	C231.535995,80.554840 227.510559,78.000755 223.816483,74.566254 
	C236.528763,79.058289 249.241028,83.550323 262.319397,88.431320 
	C261.466400,91.575020 260.247314,94.329765 259.028198,97.084503 
z"/>
<path fill="#EF8C2F" opacity="1.000000" stroke="none" 
	d="
M274.361847,50.568218 
	C278.332367,56.532089 282.097260,62.198246 286.119659,68.251999 
	C283.350861,69.782204 280.827820,71.176575 277.787598,72.856781 
	C272.742706,60.234318 267.799957,47.867355 262.857178,35.500397 
	C263.198151,35.297226 263.539154,35.094051 263.880157,34.890881 
	C267.305511,40.017422 270.730865,45.143959 274.361847,50.568218 
z"/>
<path fill="#F09032" opacity="1.000000" stroke="none" 
	d="
M337.258118,56.346725 
	C335.699036,61.126522 334.259491,65.527443 332.639313,70.480675 
	C329.639221,69.106171 326.993988,67.894241 323.918060,66.484985 
	C330.784149,54.652401 337.507050,43.066555 344.229980,31.480709 
	C344.563049,31.605844 344.896149,31.730980 345.229248,31.856113 
	C342.612061,39.893356 339.994843,47.930595 337.258118,56.346725 
z"/>
<path fill="#2C577B" opacity="1.000000" stroke="none" 
	d="
M670.421753,218.272186 
	C672.058655,222.150330 673.339661,225.840897 675.077942,230.848953 
	C676.313049,227.319382 676.917786,225.005524 677.928162,222.884918 
	C678.770386,221.117264 680.088318,219.576309 681.195557,217.934967 
	C682.202393,219.484116 683.394531,220.946518 684.170105,222.603851 
	C685.186218,224.775177 685.873474,227.100418 686.799744,229.625443 
	C690.193726,226.002640 688.280151,219.846100 694.900024,217.111130 
	C692.554077,223.771729 690.701904,229.158737 688.715454,234.495758 
	C688.486572,235.110626 687.350403,235.942841 686.914795,235.802887 
	C686.155701,235.558990 685.319275,234.746521 685.033325,233.979340 
	C683.794128,230.653976 682.742554,227.258743 681.192017,222.592911 
	C679.675171,226.894424 678.682678,229.998856 677.464172,233.011871 
	C677.020203,234.109467 676.038025,234.989380 675.301514,235.968628 
	C674.467896,235.096207 673.273743,234.366058 672.863403,233.326523 
	C671.160278,229.011505 669.621277,224.625610 668.246277,220.196121 
	C668.100281,219.725891 669.424011,218.799423 670.421753,218.272186 
z"/>
<path fill="#EF8C2F" opacity="1.000000" stroke="none" 
	d="
M290.182251,39.035679 
	C289.818329,35.162594 289.482178,31.751673 289.146027,28.340754 
	C289.674133,28.182400 290.202240,28.024046 290.730347,27.865692 
	C294.395844,39.855625 298.061340,51.845558 301.868378,64.298424 
	C298.607544,64.925209 295.629547,65.497627 292.206024,66.155678 
	C291.518250,56.969852 290.864166,48.233849 290.182251,39.035679 
z"/>
<path fill="#F3902F" opacity="1.000000" stroke="none" 
	d="
M254.394440,119.844200 
	C255.359299,122.760742 256.043793,125.434212 256.853973,128.598526 
	C243.980438,129.422974 231.763275,130.205383 219.546097,130.987808 
	C219.456024,130.390228 219.365952,129.792648 219.275894,129.195053 
	C230.888626,125.997086 242.501358,122.799103 254.394440,119.844200 
z"/>
<path fill="#28587A" opacity="1.000000" stroke="none" 
	d="
M656.003296,212.023132 
	C659.579773,219.876358 662.923950,227.449402 666.268066,235.022446 
	C665.946533,235.406876 665.625061,235.791321 665.303528,236.175751 
	C664.178711,235.201660 662.485168,234.440765 662.026367,233.216995 
	C659.910400,227.572617 655.225830,230.844452 651.765076,230.011749 
	C649.123413,229.376160 647.409058,230.332581 646.453674,233.068329 
	C646.029907,234.281693 644.645996,235.159760 643.697876,236.190018 
	C643.221313,235.887344 642.744690,235.584686 642.268127,235.282013 
	C645.503662,227.774902 648.658020,220.230148 652.097229,212.817490 
	C652.450806,212.055222 654.505554,212.082199 656.003296,212.023132 
M650.909058,226.962341 
	C653.485779,226.962341 656.062500,226.962341 659.179932,226.962341 
	C657.451965,223.032608 655.977783,219.680023 653.881775,214.913422 
	C652.331055,219.730759 651.207397,223.221436 650.909058,226.962341 
z"/>
<path fill="#F18C2C" opacity="1.000000" stroke="none" 
	d="
M356.230377,65.181992 
	C352.522736,70.294228 349.032776,75.113556 345.252869,80.333282 
	C342.724243,78.076004 340.445190,76.041504 337.892853,73.763062 
	C346.298462,66.345230 354.365692,59.226036 362.432922,52.106842 
	C362.877594,52.520348 363.322296,52.933849 363.766998,53.347351 
	C361.327362,57.194592 358.887726,61.041836 356.230377,65.181992 
z"/>
<path fill="#F18C2C" opacity="1.000000" stroke="none" 
	d="
M384.054016,69.317612 
	C385.399811,68.809982 386.432129,68.473289 387.464478,68.136589 
	C387.538177,68.293846 387.611847,68.451103 387.685547,68.608360 
	C378.710327,75.095917 370.031097,82.076782 360.569733,87.754250 
	C357.916840,89.346184 352.962402,87.102730 349.063690,86.618591 
	C349.043518,86.078545 349.023346,85.538506 349.003174,84.998466 
	C360.582306,79.828491 372.161438,74.658524 384.054016,69.317612 
z"/>
<path fill="#F69136" opacity="1.000000" stroke="none" 
	d="
M637.266724,134.426392 
	C638.478882,133.277725 639.592407,131.705917 640.524841,131.806870 
	C643.604004,132.140228 647.622803,132.164169 649.349243,134.063095 
	C650.820374,135.681091 650.592224,140.218445 649.384460,142.578186 
	C647.535217,146.191330 643.363770,145.772461 640.002319,144.538254 
	C636.481812,143.245682 635.867615,140.074585 636.443298,136.657608 
	C636.552307,136.010544 636.865845,135.397934 637.266724,134.426392 
z"/>
<path fill="#305D85" opacity="1.000000" stroke="none" 
	d="
M706.048462,225.065338 
	C707.316956,224.433929 708.154785,223.804138 708.992554,223.174347 
	C707.295349,222.245651 705.678406,220.834702 703.876526,220.534790 
	C702.323914,220.276352 700.560608,221.283737 698.739441,220.949493 
	C701.642639,217.392181 705.625000,216.321976 708.863831,218.555634 
	C710.945984,219.991638 711.920959,223.643051 712.498352,226.483170 
	C713.101379,229.450043 712.632996,232.634689 712.632996,235.722076 
	C710.042908,235.722076 708.118408,235.433060 706.314880,235.777466 
	C701.346497,236.726273 697.533203,235.143845 697.273254,231.386017 
	C696.950012,226.713196 700.572815,225.824234 704.125366,225.120010 
	C704.607361,225.024475 705.119507,225.080887 706.048462,225.065338 
M709.347168,230.072571 
	C708.873779,224.600433 705.220642,228.201981 703.101440,228.164581 
	C702.287964,228.150223 701.435608,230.335312 700.601013,231.518204 
	C702.614441,232.032043 704.612427,232.807007 706.649048,232.926788 
	C707.426086,232.972473 708.291443,231.516403 709.347168,230.072571 
z"/>
<path fill="#2E5A7E" opacity="1.000000" stroke="none" 
	d="
M616.644653,220.282516 
	C618.342407,224.050781 619.861145,227.488327 621.551147,231.313477 
	C624.670105,226.852432 624.648193,220.980362 628.266785,217.422577 
	C628.943237,217.797150 629.619690,218.171707 630.296143,218.546280 
	C627.390259,225.476730 624.806702,232.573364 621.373535,239.231995 
	C620.398438,241.123322 616.948853,241.738846 614.634033,242.939453 
	C614.247986,242.257477 613.862000,241.575516 613.475952,240.893539 
	C614.347412,240.350311 615.155945,239.523453 616.101379,239.313782 
	C619.853943,238.481567 620.533691,236.367584 619.031067,233.115326 
	C616.817322,228.323944 614.627747,223.521439 612.427856,218.723679 
	C612.735168,218.388855 613.042419,218.054047 613.349731,217.719223 
	C614.388306,218.463425 615.426941,219.207611 616.644653,220.282516 
z"/>
<path fill="#2E5A7E" opacity="1.000000" stroke="none" 
	d="
M536.719482,219.692871 
	C539.486633,217.860352 539.625000,217.851273 539.786255,220.310486 
	C539.948853,222.791580 539.820984,225.293579 539.779297,227.785706 
	C539.734253,230.477814 540.063049,233.051987 543.507446,233.055588 
	C546.939514,233.059174 549.197937,231.477814 549.144348,227.630646 
	C549.109619,225.138596 549.033569,222.632477 549.263000,220.159302 
	C549.344116,219.284851 550.276062,218.489380 550.819580,217.657852 
	C551.191101,217.826492 551.562683,217.995148 551.934204,218.163803 
	C551.934204,223.984039 551.934204,229.804260 551.934204,234.909454 
	C549.240906,235.267395 546.968384,235.449432 544.747192,235.890060 
	C540.391296,236.754135 537.085815,234.566208 536.724609,230.083649 
	C536.458618,226.783112 536.679321,223.443359 536.719482,219.692871 
z"/>
<path fill="#2C577B" opacity="1.000000" stroke="none" 
	d="
M592.788208,226.219299 
	C594.254822,219.799103 597.492188,217.157913 602.745056,217.753525 
	C607.709900,218.316452 610.164856,221.628433 610.037415,228.042511 
	C605.663940,228.042511 601.260559,228.042511 596.755371,228.042511 
	C597.935425,232.467819 597.935425,232.467819 609.461304,232.040100 
	C607.278015,236.007385 604.026611,236.518463 600.608276,235.973740 
	C595.422913,235.147415 593.003052,231.700531 592.788208,226.219299 
M606.943726,223.931198 
	C604.873474,222.678589 602.822998,220.507431 600.726807,220.462494 
	C599.033936,220.426178 597.286011,222.953629 595.562500,224.343735 
	C595.823792,224.930801 596.085083,225.517853 596.346375,226.104919 
	C599.887573,225.649933 603.428711,225.194946 606.943726,223.931198 
z"/>
<path fill="#325C7D" opacity="1.000000" stroke="none" 
	d="
M575.623962,229.877869 
	C575.380371,232.213257 575.133667,234.102097 574.887024,235.990952 
	C574.274292,235.946396 573.661499,235.901840 573.048706,235.857300 
	C573.048706,230.011795 573.048706,224.166275 573.048706,218.626984 
	C575.175476,218.390366 577.405518,218.248718 579.596436,217.876495 
	C584.267639,217.082916 587.535095,219.345871 587.893616,224.093414 
	C588.143188,227.397247 588.016541,230.741470 587.833801,234.055298 
	C587.799622,234.675507 586.704163,235.237167 586.098450,235.825806 
	C585.687805,235.220581 584.955627,234.632538 584.922302,234.007172 
	C584.780640,231.354950 584.822754,228.691452 584.843079,226.032410 
	C584.864014,223.301315 584.346191,220.868683 580.992371,220.779068 
	C577.602905,220.688477 575.767883,222.558426 575.573364,225.942764 
	C575.506775,227.100891 575.600464,228.268219 575.623962,229.877869 
z"/>
<path fill="#2C577B" opacity="1.000000" stroke="none" 
	d="
M531.879211,227.001587 
	C530.309998,234.041046 525.939880,237.243469 520.302917,235.880020 
	C515.367798,234.686310 512.472229,229.404297 514.004395,224.142563 
	C515.206543,220.014297 518.040833,217.794846 522.385010,217.730499 
	C527.526306,217.654327 530.291870,220.279953 531.879211,227.001587 
M517.307861,229.821228 
	C517.570251,230.239258 517.770081,230.957657 518.104980,231.027435 
	C520.606079,231.548447 524.134216,233.144165 525.410889,232.082550 
	C527.177979,230.613205 528.223633,226.915039 527.736694,224.550446 
	C527.382141,222.828369 524.102600,220.676865 522.035156,220.574570 
	C518.712891,220.410187 516.993530,223.200745 516.849060,226.581985 
	C516.814331,227.394684 516.984558,228.216125 517.307861,229.821228 
z"/>
<path fill="#325C7D" opacity="1.000000" stroke="none" 
	d="
M428.664795,230.020279 
	C427.363708,224.956421 428.447845,220.975067 432.888702,218.704971 
	C436.615051,216.800125 440.414185,217.426468 443.358032,220.479691 
	C446.400238,223.634903 447.470367,227.737076 444.797974,231.295151 
	C443.136139,233.507767 439.990875,235.318314 437.237335,235.827667 
	C433.355042,236.545837 430.311951,234.251236 428.664795,230.020279 
M431.727997,224.302582 
	C430.423523,228.160706 431.372620,231.346695 435.207184,232.856201 
	C438.139526,234.010559 440.761749,232.883575 442.175903,229.854462 
	C443.720917,226.544998 443.033630,223.498062 440.049774,221.575409 
	C436.985443,219.600891 434.051605,220.290314 431.727997,224.302582 
z"/>
<path fill="#2E5A7E" opacity="1.000000" stroke="none" 
	d="
M426.331329,215.562469 
	C421.869324,221.754929 417.824646,227.745239 419.205322,235.882263 
	C418.605042,235.876221 418.004791,235.870163 417.404541,235.864120 
	C416.421021,231.795135 415.944611,227.508347 414.315979,223.716446 
	C412.574310,219.661240 409.746246,216.072617 407.925476,211.795700 
	C413.648529,212.811325 413.896454,219.118607 417.876404,222.277664 
	C420.650574,218.511658 423.592010,214.518631 426.533417,210.525589 
	C427.135193,210.940964 427.736969,211.356323 428.338745,211.771683 
	C427.730499,212.936951 427.122253,214.102203 426.331329,215.562469 
z"/>
<path fill="#F08824" opacity="1.000000" stroke="none" 
	d="
M266.995209,83.077499 
	C266.336639,83.041313 265.345398,83.272629 265.069092,82.929031 
	C260.528656,77.283295 256.078369,71.565094 251.983002,65.486481 
	C253.829193,64.915024 255.300186,64.720276 256.771179,64.525520 
	C261.235931,67.958679 265.674530,71.426605 270.177063,74.809486 
	C272.251953,76.368401 272.693451,77.783264 269.830200,79.788406 
	C268.623596,81.203712 267.809418,82.140602 266.995209,83.077499 
z"/>
<path fill="#F08824" opacity="1.000000" stroke="none" 
	d="
M241.895020,145.763672 
	C246.947067,142.373611 251.999115,138.983551 257.235901,135.469528 
	C259.359589,138.214554 261.230865,140.633331 263.315918,143.328384 
	C256.247406,145.938965 249.499969,148.430984 242.375351,150.512482 
	C241.963791,148.655869 241.929398,147.209763 241.895020,145.763672 
z"/>
<path fill="#2E5A7E" opacity="1.000000" stroke="none" 
	d="
M450.889008,228.673386 
	C451.093689,224.783325 451.295776,221.350037 451.497833,217.916733 
	C452.326996,217.962723 453.156189,218.008728 453.985352,218.054718 
	C453.985352,221.369995 454.025818,224.685928 453.972748,228.000381 
	C453.928864,230.742371 454.356903,233.207870 457.797760,233.143951 
	C461.003143,233.084412 463.195984,231.590225 463.214569,228.009750 
	C463.231812,224.690079 463.218231,221.370255 464.291260,218.036835 
	C467.539398,223.721710 465.817230,229.698959 466.306427,234.830322 
	C463.571564,235.183884 461.443634,235.242371 459.434906,235.761673 
	C454.561157,237.021637 451.686096,234.871658 450.889008,228.673386 
z"/>
<path fill="#305D85" opacity="1.000000" stroke="none" 
	d="
M753.137146,220.158936 
	C751.489502,220.518051 749.728760,220.236801 748.068481,220.528030 
	C746.607788,220.784256 745.259460,221.680969 743.861511,222.294861 
	C744.829407,223.230865 745.792297,224.172241 746.772644,225.095108 
	C746.879333,225.195557 747.089417,225.180832 747.246704,225.233780 
	C750.243591,226.242676 753.913208,226.991425 753.534119,231.036591 
	C753.379028,232.692322 751.332581,234.941330 749.659973,235.524216 
	C746.162659,236.742966 742.591187,236.279984 739.881897,232.447464 
	C743.525024,230.487946 747.844849,236.072662 750.992310,230.498505 
	C749.453552,229.685440 748.042786,228.687180 746.473633,228.163254 
	C743.151001,227.053864 739.626953,225.913025 740.998169,221.470184 
	C742.306641,217.230804 746.108093,217.238937 749.698486,217.909256 
	C750.895447,218.132736 751.948792,219.126022 753.137146,220.158936 
z"/>
<path fill="#2E5A7E" opacity="1.000000" stroke="none" 
	d="
M731.983643,216.172333 
	C733.359558,217.388962 734.728516,218.200150 736.870972,219.469711 
	C734.961060,220.249863 733.621643,220.796997 732.286804,221.348648 
	C731.442261,232.361298 731.442261,232.361298 737.451416,234.426743 
	C735.998474,234.915527 734.250610,236.148346 733.162292,235.717056 
	C731.567139,235.084930 729.801941,233.474548 729.277466,231.893433 
	C728.574402,229.774338 729.198975,227.253189 728.854980,224.964569 
	C728.570984,223.075409 727.707947,221.273315 726.862549,218.707352 
	C727.421997,217.655960 728.584473,215.471039 730.286682,212.271805 
	C730.944336,213.631821 731.460510,214.699356 731.983643,216.172333 
z"/>
<path fill="#224D74" opacity="1.000000" stroke="none" 
	d="
M562.080322,223.763947 
	C561.562256,228.017181 561.206909,231.874847 560.851562,235.732513 
	C560.322021,235.729950 559.792480,235.727386 559.262939,235.724808 
	C557.686707,230.031021 559.024963,224.145157 558.581726,218.435425 
	C562.073975,218.435425 565.030090,218.435425 569.384521,218.435425 
	C566.293762,220.570374 564.268372,221.969376 562.080322,223.763947 
z"/>
<path fill="#305D85" opacity="1.000000" stroke="none" 
	d="
M475.904968,229.974731 
	C475.901062,231.410172 476.121887,232.479172 475.828522,233.380859 
	C475.543274,234.257645 474.731049,234.962982 474.150238,235.743607 
	C473.711395,234.981140 472.909851,234.226807 472.892487,233.454865 
	C472.778503,228.383102 472.833679,223.307541 472.833679,219.015762 
	C476.318573,218.691360 479.060211,218.436157 483.076385,218.062302 
	C479.743652,221.897354 473.830261,223.653046 475.904968,229.974731 
z"/>
<path fill="#FCF6EC" opacity="1.000000" stroke="none" 
	d="
M266.992401,83.447433 
	C267.809418,82.140602 268.623596,81.203712 269.704590,80.108116 
	C270.776215,80.866470 271.581024,81.783524 272.663391,82.834274 
	C269.752228,88.132164 266.563507,93.296356 263.147461,98.724190 
	C261.726746,98.549332 260.533386,98.110825 259.184082,97.378418 
	C260.247314,94.329765 261.466400,91.575020 262.677002,88.482872 
	C264.108826,86.702766 265.549225,85.260063 266.992401,83.447433 
z"/>
<path fill="#325C7D" opacity="1.000000" stroke="none" 
	d="
M504.854187,230.947250 
	C505.073700,225.630569 505.205383,220.307663 505.581024,215.002045 
	C505.664001,213.830261 506.610748,212.719666 507.159729,211.580887 
	C507.673706,212.629471 508.643005,213.685623 508.625763,214.725403 
	C508.532440,220.355667 508.195129,225.981903 507.362793,231.771332 
	C506.140533,231.604507 505.497375,231.275879 504.854187,230.947250 
z"/>
<path fill="#E3E9EC" opacity="1.000000" stroke="none" 
	d="
M397.789612,180.040756 
	C397.375366,177.324249 397.375366,174.596588 397.375366,171.925522 
	C404.113586,170.708389 404.509674,170.964188 407.288910,178.477142 
	C404.271545,179.245544 401.237701,179.637573 397.789612,180.040756 
z"/>
<path fill="#325C7D" opacity="1.000000" stroke="none" 
	d="
M719.389343,235.456192 
	C719.058594,229.524826 719.058594,223.818771 719.058594,217.185486 
	C720.267883,218.114395 721.606873,218.654221 721.623596,219.232254 
	C721.770874,224.332748 721.726257,229.441284 721.581299,234.542984 
	C721.569946,234.939789 720.368408,235.302795 719.389343,235.456192 
z"/>
<path fill="#F09032" opacity="1.000000" stroke="none" 
	d="
M256.591492,64.235161 
	C255.300186,64.720276 253.829193,64.915024 251.806946,65.177368 
	C247.549713,61.002678 243.843750,56.760391 240.137787,52.518101 
	C240.444702,52.124630 240.751617,51.731159 241.058517,51.337688 
	C246.176270,55.540058 251.294022,59.742428 256.591492,64.235161 
z"/>
<path fill="#F69136" opacity="1.000000" stroke="none" 
	d="
M241.563965,145.874832 
	C241.929398,147.209763 241.963791,148.655869 242.000763,150.535187 
	C236.601700,153.246979 231.200027,155.525528 225.798355,157.804092 
	C225.616089,157.384888 225.433823,156.965668 225.251556,156.546463 
	C230.578674,153.026306 235.905807,149.506149 241.563965,145.874832 
z"/>
<path fill="#305D85" opacity="1.000000" stroke="none" 
	d="
M504.561401,231.146225 
	C505.497375,231.275879 506.140533,231.604507 507.120544,232.065125 
	C504.414185,236.289551 499.498047,237.451080 496.096741,234.709396 
	C495.434662,234.175720 495.366699,232.904953 495.024658,231.974182 
	C495.873230,231.966522 496.725555,232.007553 497.569611,231.941788 
	C499.804535,231.767578 502.035858,231.547195 504.561401,231.146225 
z"/>
<path fill="#FCF6EC" opacity="1.000000" stroke="none" 
	d="
M272.996216,108.647171 
	C271.534302,109.932220 270.070374,110.809021 268.290833,111.769058 
	C267.799927,111.015625 267.624634,110.178963 267.184692,109.144836 
	C268.690735,107.945465 270.461395,106.943550 272.570618,105.868103 
	C272.937500,106.609352 272.965851,107.424133 272.996216,108.647171 
z"/>
<path fill="#F6F8F8" opacity="1.000000" stroke="none" 
	d="
M268.136292,217.721008 
	C264.877045,217.494736 262.076385,217.292542 258.928894,217.065323 
	C256.960754,205.612183 259.609436,195.304993 266.355591,186.444183 
	C267.765839,184.591904 272.870636,185.552444 277.362030,185.109283 
	C272.424347,196.214554 270.321014,206.413788 273.651520,217.745087 
	C271.673767,217.745087 270.134308,217.745087 268.136292,217.721008 
z"/>
<path fill="#ECF0F2" opacity="1.000000" stroke="none" 
	d="
M298.703064,156.664185 
	C302.470490,154.649628 305.466766,150.638184 309.964539,154.040466 
	C303.301178,159.391327 296.830383,164.999008 289.865509,169.905396 
	C288.011292,171.211563 284.642639,170.367905 281.969299,170.511276 
	C281.776062,170.031982 281.582825,169.552689 281.389587,169.073380 
	C287.057465,165.004166 292.725311,160.934967 298.703064,156.664185 
z"/>
<path fill="#E3E9EC" opacity="1.000000" stroke="none" 
	d="
M339.926270,136.973541 
	C341.675201,136.496994 343.050323,136.123856 344.425476,135.750702 
	C344.560486,136.140579 344.695496,136.530441 344.830505,136.920319 
	C338.154175,139.739227 332.130127,144.200165 324.706146,145.136932 
	C324.472900,144.584579 324.239624,144.032227 324.006348,143.479874 
	C329.188416,141.345566 334.370453,139.211258 339.926270,136.973541 
z"/>
<path fill="#F0F4F6" opacity="1.000000" stroke="none" 
	d="
M408.554688,159.880432 
	C404.773804,160.312531 401.369141,160.610626 397.545349,160.945435 
	C397.545349,155.614136 397.545349,150.904846 397.545349,146.154373 
	C404.587982,144.438766 410.194916,145.759308 411.944855,149.896118 
	C413.630981,153.882126 412.818237,157.345428 408.554688,159.880432 
z"/>
<path fill="#FDFDFD" opacity="1.000000" stroke="none" 
	d="
M294.422455,108.096527 
	C291.911987,108.147835 289.829010,108.147835 286.543579,108.147835 
	C292.623688,101.334229 299.682434,98.686653 306.684387,95.939766 
	C319.956665,90.733032 333.480865,91.121773 347.543884,94.125397 
	C348.549286,94.704933 349.135468,95.252609 350.966553,96.963341 
	C331.543182,100.799057 313.196564,104.422134 294.422455,108.096527 
z"/>
<path fill="#C6C6C8" opacity="1.000000" stroke="none" 
	d="
M353.752502,119.905579 
	C346.394409,122.073097 338.675751,124.078796 330.562134,126.106613 
	C329.780487,125.332306 329.393738,124.535873 329.392700,123.318451 
	C332.882843,122.142014 335.987366,121.386566 339.091858,120.631119 
	C339.047089,120.336266 339.002319,120.041405 338.957520,119.746552 
	C336.306946,120.134094 333.656342,120.521637 331.005737,120.909164 
	C332.109802,119.591286 332.977264,117.558525 334.365479,117.099075 
	C337.609253,116.025497 341.090973,115.620476 344.504150,115.144295 
	C345.357941,115.025185 346.396851,115.520004 347.212372,115.978622 
	C349.313507,117.160233 351.337250,118.479485 353.752502,119.905579 
z"/>
<path fill="#ECF0F2" opacity="1.000000" stroke="none" 
	d="
M330.586243,120.944077 
	C333.656342,120.521637 336.306946,120.134094 338.957520,119.746552 
	C339.002319,120.041405 339.047089,120.336266 339.091858,120.631119 
	C335.987366,121.386566 332.882843,122.142014 329.390381,122.966606 
	C323.335907,123.186684 317.772736,126.926743 311.474396,123.624802 
	C318.061066,122.692482 324.113922,121.835732 330.586243,120.944077 
z"/>
<path fill="#F0F4F6" opacity="1.000000" stroke="none" 
	d="
M387.917847,96.420670 
	C386.489380,95.605026 385.422882,94.955536 384.356354,94.306046 
	C384.450592,93.852417 384.544800,93.398796 384.639038,92.945168 
	C388.602692,93.260895 392.566345,93.576622 396.529999,93.892349 
	C396.541351,94.606148 396.552734,95.319939 396.564087,96.033730 
	C393.802673,96.218094 391.041260,96.402458 387.917847,96.420670 
z"/>
<path fill="#F6F8F8" opacity="1.000000" stroke="none" 
	d="
M546.689087,160.411163 
	C553.570129,164.340546 548.957581,170.422821 549.844421,175.362045 
	C550.142700,177.023056 548.023865,179.963364 546.256592,180.903839 
	C544.605774,181.782410 541.616089,181.423157 539.822937,180.468369 
	C536.856995,178.889160 535.816956,170.738663 537.453125,165.946243 
	C538.888916,161.740662 541.897827,159.910706 546.689087,160.411163 
z"/>
<path fill="#FDFAF4" opacity="1.000000" stroke="none" 
	d="
M719.139282,174.762299 
	C719.143677,171.975098 719.314026,169.634125 719.116821,167.324554 
	C718.772400,163.290680 720.958374,161.512680 724.508423,160.945663 
	C728.264526,160.345718 731.517395,161.486145 731.989990,165.546402 
	C732.437683,169.393402 732.299805,173.468552 731.510559,177.253845 
	C730.742615,180.937515 727.737915,182.477631 723.842529,181.894958 
	C719.889709,181.303696 718.595093,178.935150 719.139282,174.762299 
z"/>
<path fill="#FDFBF7" opacity="1.000000" stroke="none" 
	d="
M673.201172,180.576828 
	C672.622681,174.938339 671.983582,169.519882 672.449341,164.198120 
	C672.561523,162.916519 676.345642,161.074280 678.422791,161.097885 
	C680.449463,161.120926 684.006104,163.008057 684.180725,164.413635 
	C684.749451,168.990433 685.012024,174.021164 683.633545,178.312134 
	C682.124146,183.010361 677.629883,182.720932 673.201172,180.576828 
z"/>
<path fill="#F6F9FA" opacity="1.000000" stroke="none" 
	d="
M446.878906,174.528687 
	C446.950623,171.274307 446.721252,168.383881 447.275818,165.652634 
	C447.971436,162.226669 450.307983,160.127518 454.036774,160.217529 
	C457.658478,160.304962 460.143738,162.217682 460.809937,165.710617 
	C461.332001,168.448074 461.372559,171.344757 461.169220,174.137360 
	C460.867279,178.283752 459.217194,181.706635 454.404816,181.958496 
	C449.642303,182.207748 447.560608,179.284836 446.878906,174.528687 
z"/>
<path fill="#ECF0F2" opacity="1.000000" stroke="none" 
	d="
M503.448303,177.576324 
	C503.364227,178.117035 503.351959,178.286118 503.296600,178.439667 
	C501.822906,182.527008 498.458466,183.227051 494.905518,182.434052 
	C493.972900,182.225876 493.570984,179.639984 492.925293,178.146027 
	C496.103943,176.841156 499.282593,175.536255 502.461243,174.231369 
	C502.807526,175.220062 503.153809,176.208771 503.448303,177.576324 
z"/>
<path fill="#FCF6EC" opacity="1.000000" stroke="none" 
	d="
M768.435303,166.806396 
	C766.914307,166.709564 765.818054,166.615662 764.461792,166.499481 
	C764.917419,161.880386 767.335754,159.505188 771.521057,159.528183 
	C775.581482,159.550461 777.707947,161.960266 777.896851,166.809326 
	C774.673828,166.809326 771.766907,166.809326 768.435303,166.806396 
z"/>
<path fill="#ECF0F2" opacity="1.000000" stroke="none" 
	d="
M650.496399,226.837219 
	C651.207397,223.221436 652.331055,219.730759 653.881775,214.913422 
	C655.977783,219.680023 657.451965,223.032608 659.179932,226.962341 
	C656.062500,226.962341 653.485779,226.962341 650.496399,226.837219 
z"/>
<path fill="#E3E9EC" opacity="1.000000" stroke="none" 
	d="
M709.231812,230.408661 
	C708.291443,231.516403 707.426086,232.972473 706.649048,232.926788 
	C704.612427,232.807007 702.614441,232.032043 700.601013,231.518188 
	C701.435608,230.335312 702.287964,228.150223 703.101440,228.164581 
	C705.220642,228.201981 708.873779,224.600433 709.231812,230.408661 
z"/>
<path fill="#E3E9EC" opacity="1.000000" stroke="none" 
	d="
M606.956787,224.335571 
	C603.428711,225.194946 599.887573,225.649933 596.346375,226.104919 
	C596.085083,225.517853 595.823792,224.930801 595.562500,224.343735 
	C597.286011,222.953629 599.033936,220.426178 600.726807,220.462494 
	C602.822998,220.507431 604.873474,222.678589 606.956787,224.335571 
z"/>
<path fill="#F6F8F8" opacity="1.000000" stroke="none" 
	d="
M517.184204,229.427399 
	C516.984558,228.216125 516.814331,227.394684 516.849060,226.581985 
	C516.993530,223.200745 518.712891,220.410187 522.035156,220.574570 
	C524.102600,220.676865 527.382141,222.828369 527.736694,224.550446 
	C528.223633,226.915039 527.177979,230.613205 525.410889,232.082550 
	C524.134216,233.144165 520.606079,231.548447 518.104980,231.027435 
	C517.770081,230.957657 517.570251,230.239258 517.184204,229.427399 
z"/>
<path fill="#F6F9FA" opacity="1.000000" stroke="none" 
	d="
M431.868469,223.927246 
	C434.051605,220.290314 436.985443,219.600891 440.049774,221.575409 
	C443.033630,223.498062 443.720917,226.544998 442.175903,229.854462 
	C440.761749,232.883575 438.139526,234.010559 435.207184,232.856201 
	C431.372620,231.346695 430.423523,228.160706 431.868469,223.927246 
z"/>
</svg>